<?xml version="1.0" encoding="UTF-8" standalone="no"?>
<!-- Created with Inkscape (http://www.inkscape.org/) -->

<svg
   width="61.875797"
   height="52.830109"
   viewBox="0 0 16.371303 13.977965"
   version="1.1"
   id="svg5"
   inkscape:version="1.2.2 (732a01da63, 2022-12-09)"
   sodipodi:docname="alhidaayah-logo.svg"
   xml:space="preserve"
   xmlns:inkscape="http://www.inkscape.org/namespaces/inkscape"
   xmlns:sodipodi="http://sodipodi.sourceforge.net/DTD/sodipodi-0.dtd"
   xmlns:xlink="http://www.w3.org/1999/xlink"
   xmlns="http://www.w3.org/2000/svg"
   xmlns:svg="http://www.w3.org/2000/svg"
   xmlns:rdf="http://www.w3.org/1999/02/22-rdf-syntax-ns#"
   xmlns:cc="http://creativecommons.org/ns#"
   xmlns:dc="http://purl.org/dc/elements/1.1/"><title
     id="title319">Al-Hidaayah Logo</title><sodipodi:namedview
     id="namedview7"
     pagecolor="#ffffff"
     bordercolor="#000000"
     borderopacity="0.25"
     inkscape:showpageshadow="2"
     inkscape:pageopacity="0.0"
     inkscape:pagecheckerboard="0"
     inkscape:deskcolor="#d1d1d1"
     inkscape:document-units="mm"
     showgrid="false"
     inkscape:zoom="3.3234019"
     inkscape:cx="45.284923"
     inkscape:cy="41.523717"
     inkscape:window-width="1366"
     inkscape:window-height="715"
     inkscape:window-x="-8"
     inkscape:window-y="-8"
     inkscape:window-maximized="1"
     inkscape:current-layer="layer1"
     showguides="true" /><defs
     id="defs2"><linearGradient
       inkscape:collect="always"
       id="linearGradient7053"><stop
         style="stop-color:#00a651;stop-opacity:1;"
         offset="0"
         id="stop7049" /><stop
         style="stop-color:#ffc72c;stop-opacity:0.9813664;"
         offset="0.80000001"
         id="stop7051" /></linearGradient><linearGradient
       inkscape:collect="always"
       id="linearGradient4397"><stop
         style="stop-color:#00a651;stop-opacity:1;"
         offset="0"
         id="stop4393" /><stop
         style="stop-color:#ffc72c;stop-opacity:1;"
         offset="1"
         id="stop4395" /></linearGradient><clipPath
       clipPathUnits="userSpaceOnUse"
       id="clipPath2581"><circle
         style="fill:#00ffff;fill-opacity:0.50211;stroke:none;stroke-width:0.775195;stroke-linecap:butt;stroke-linejoin:miter;stroke-dasharray:none;stroke-opacity:1"
         id="circle2583"
         cx="22.044451"
         cy="15.40741"
         r="11.851854" /></clipPath><linearGradient
       inkscape:collect="always"
       xlink:href="#linearGradient4397"
       id="linearGradient4399"
       x1="9.2861071"
       y1="28.979242"
       x2="9.206665"
       y2="32.761318"
       gradientUnits="userSpaceOnUse"
       gradientTransform="matrix(1.0149415,0,0,1.0149415,-0.29676571,-0.46222569)" /><linearGradient
       inkscape:collect="always"
       xlink:href="#linearGradient7053"
       id="linearGradient7055"
       x1="9.2861071"
       y1="28.979242"
       x2="9.206665"
       y2="32.761318"
       gradientUnits="userSpaceOnUse"
       gradientTransform="matrix(1.0149415,0,0,1.0149415,-0.29676571,-0.46222569)" /><linearGradient
       inkscape:collect="always"
       xlink:href="#linearGradient4397"
       id="linearGradient15364"
       gradientUnits="userSpaceOnUse"
       gradientTransform="matrix(1.0149415,0,0,1.0149415,-0.29676571,-0.46222569)"
       x1="9.2861071"
       y1="28.979242"
       x2="9.206665"
       y2="32.761318" /><linearGradient
       inkscape:collect="always"
       xlink:href="#linearGradient4397"
       id="linearGradient15366"
       gradientUnits="userSpaceOnUse"
       gradientTransform="matrix(1.0149415,0,0,1.0149415,-0.29676571,-0.46222569)"
       x1="9.2861071"
       y1="28.979242"
       x2="9.206665"
       y2="32.761318" /><linearGradient
       inkscape:collect="always"
       xlink:href="#linearGradient4397"
       id="linearGradient15368"
       gradientUnits="userSpaceOnUse"
       gradientTransform="matrix(1.0149415,0,0,1.0149415,-0.29676571,-0.46222569)"
       x1="9.2861071"
       y1="28.979242"
       x2="9.206665"
       y2="32.761318" /><linearGradient
       inkscape:collect="always"
       xlink:href="#linearGradient4397"
       id="linearGradient15370"
       gradientUnits="userSpaceOnUse"
       gradientTransform="matrix(1.0149415,0,0,1.0149415,-0.29676571,-0.46222569)"
       x1="9.2861071"
       y1="28.979242"
       x2="9.206665"
       y2="32.761318" /><linearGradient
       inkscape:collect="always"
       xlink:href="#linearGradient4397"
       id="linearGradient15372"
       gradientUnits="userSpaceOnUse"
       gradientTransform="matrix(1.0149415,0,0,1.0149415,-0.29676571,-0.46222569)"
       x1="9.2861071"
       y1="28.979242"
       x2="9.206665"
       y2="32.761318" /><linearGradient
       inkscape:collect="always"
       xlink:href="#linearGradient4397"
       id="linearGradient15374"
       gradientUnits="userSpaceOnUse"
       gradientTransform="matrix(1.0149415,0,0,1.0149415,-0.29676571,-0.46222569)"
       x1="9.2861071"
       y1="28.979242"
       x2="9.206665"
       y2="32.761318" /><linearGradient
       inkscape:collect="always"
       xlink:href="#linearGradient4397"
       id="linearGradient15376"
       gradientUnits="userSpaceOnUse"
       gradientTransform="matrix(1.0149415,0,0,1.0149415,-0.29676571,-0.46222569)"
       x1="9.2861071"
       y1="28.979242"
       x2="9.206665"
       y2="32.761318" /><linearGradient
       inkscape:collect="always"
       xlink:href="#linearGradient4397"
       id="linearGradient15378"
       gradientUnits="userSpaceOnUse"
       gradientTransform="matrix(1.0149415,0,0,1.0149415,-0.29676571,-0.46222569)"
       x1="9.2861071"
       y1="28.979242"
       x2="9.206665"
       y2="32.761318" /></defs><g
     inkscape:label="Layer 1"
     inkscape:groupmode="layer"
     id="layer1"
     transform="translate(-8.962301,-14.390021)"><text
       xml:space="preserve"
       style="font-style:normal;font-variant:normal;font-weight:normal;font-stretch:normal;font-size:50.8px;font-family:'Cooper Black';-inkscape-font-specification:'Cooper Black, ';fill:#ff0000;stroke:#ffffff;stroke-width:0;stroke-linecap:round;stroke-linejoin:round"
       x="83.059319"
       y="174.92796"
       id="text513"><tspan
         sodipodi:role="line"
         id="tspan511"
         style="font-style:normal;font-variant:normal;font-weight:normal;font-stretch:normal;font-size:50.8px;font-family:'Cooper Black';-inkscape-font-specification:'Cooper Black, ';stroke-width:0"
         x="83.059319"
         y="174.92796" /></text><text
       xml:space="preserve"
       style="font-style:normal;font-variant:normal;font-weight:normal;font-stretch:normal;font-size:50.8px;font-family:'Cooper Black';-inkscape-font-specification:'Cooper Black, ';fill:#ff0000;stroke:#ffffff;stroke-width:0;stroke-linecap:round;stroke-linejoin:round"
       x="415.2966"
       y="158.56779"
       id="text517"><tspan
         sodipodi:role="line"
         id="tspan515"
         style="font-style:normal;font-variant:normal;font-weight:normal;font-stretch:normal;font-family:'Cooper Black';-inkscape-font-specification:'Cooper Black, ';stroke-width:0"
         x="415.2966"
         y="158.56779" /></text><text
       xml:space="preserve"
       style="font-style:normal;font-variant:normal;font-weight:normal;font-stretch:normal;font-size:50.8px;font-family:'Cooper Black';-inkscape-font-specification:'Cooper Black, ';fill:#ff0000;stroke:#ffffff;stroke-width:0;stroke-linecap:round;stroke-linejoin:round"
       x="-235.33475"
       y="132.13983"
       id="text521"><tspan
         sodipodi:role="line"
         id="tspan519"
         style="font-style:normal;font-variant:normal;font-weight:normal;font-stretch:normal;font-family:'Cooper Black';-inkscape-font-specification:'Cooper Black, ';fill:#00ffff;stroke-width:0"
         x="-235.33475"
         y="132.13983" /></text><text
       xml:space="preserve"
       style="font-style:normal;font-variant:normal;font-weight:normal;font-stretch:normal;font-size:50.8px;font-family:'Cooper Black';-inkscape-font-specification:'Cooper Black, ';fill:#00ffff;stroke:#ffffff;stroke-width:0;stroke-linecap:round;stroke-linejoin:round"
       x="20.135592"
       y="91.868637"
       id="text825"><tspan
         sodipodi:role="line"
         id="tspan823"
         style="font-style:normal;font-variant:normal;font-weight:normal;font-stretch:normal;font-family:'Cooper Black';-inkscape-font-specification:'Cooper Black, ';stroke-width:0"
         x="20.135592"
         y="91.868637" /></text><g
       id="g9227"
       transform="matrix(1.252459,0,0,1.252459,-1.0405449,-2.4784049)"><path
         id="path1787"
         style="fill:none;stroke:#002e5d;stroke-width:1.14717;stroke-linecap:butt;stroke-linejoin:miter;stroke-dasharray:none;stroke-opacity:1"
         d="M 8.606559,11.34408 30.790018,25.643756 M 34.445835,14.269468 12.828979,26.241478 M 32.863239,9.478906 7.7772717,17.146848 M 12.960321,5.334074 33.899849,20.048232 M 26.8509,3.4688968 21.460524,29.788589 M 21.045882,2.4326895 10.679781,24.400305"
         clip-path="url(#clipPath2581)"
         transform="matrix(0.35393211,0,0,0.35551303,6.7575313,12.290692)" /><g
         aria-label="AL HIDAAYAH"
         id="text2691"
         style="font-size:5.17676px;font-family:Aldhabi;-inkscape-font-specification:Aldhabi;letter-spacing:3.43958px;fill:url(#linearGradient4399);stroke:url(#linearGradient7055);stroke-width:0.49"
         transform="matrix(0.30726988,0,0,0.30726988,8.0558904,11.533955)"><path
           d="m 0.36589343,20.128243 3.74994967,1.301843 0.01718,0.528013 -3.65434919,1.636335 -0.0181666,-0.55833 1.10765529,-0.468508 -0.05039,-1.54867 -1.13494619,-0.370249 z m 1.55565087,1.019173 0.040854,1.25561 1.0131327,-0.41991 q 0.4616259,-0.192054 0.75947,-0.287733 -0.3585209,-0.05915 -0.7138798,-0.176567 z"
           style="fill:#ffc72c;stroke:#ffc72c;stroke-opacity:0.980392"
           id="path15343" /><path
           d="m 1.3113171,27.322577 3.4782906,-1.277963 0.1691165,0.460292 -3.0678239,1.127153 0.6293924,1.713046 -0.4104668,0.15081 z"
           style="fill:#ffc72c;stroke:#ffc72c;stroke-opacity:0.980392"
           id="path15345" /><path
           d="m 7.3075245,36.685364 2.2714489,-2.927834 0.3874488,0.300587 -0.9327505,1.202289 1.5218343,1.180658 0.932751,-1.202289 0.387449,0.300587 -2.2714493,2.927834 -0.3874487,-0.300587 1.070649,-1.380037 -1.5218349,-1.180657 -1.0706489,1.380036 z"
           style="fill:url(#linearGradient15364);stroke:#00a651;stroke-opacity:0.980392"
           id="path15347" /><path
           d="m 13.465661,40.447484 1.334648,-3.456936 0.457467,0.176618 -1.334648,3.456936 z"
           style="fill:url(#linearGradient15366);stroke:#00a651;stroke-opacity:0.980392"
           id="path15349" /><path
           d="m 18.079501,41.743928 0.288194,-3.694406 1.27263,0.09928 q 0.43093,0.03362 0.653607,0.10423 0.311827,0.09785 0.521171,0.306872 0.273062,0.269769 0.386628,0.666544 0.116282,0.394451 0.07775,0.888382 -0.03283,0.42085 -0.156471,0.738271 -0.123642,0.317421 -0.294076,0.519634 -0.170236,0.199693 -0.363833,0.308825 -0.190881,0.106809 -0.455361,0.149562 -0.261961,0.04295 -0.597129,0.0168 z m 0.522901,-0.397832 0.788778,0.06153 q 0.365409,0.02851 0.577361,-0.02342 0.214473,-0.05173 0.347589,-0.165575 0.187448,-0.16032 0.306014,-0.445176 0.121283,-0.28718 0.153916,-0.70551 0.04521,-0.579614 -0.12213,-0.904521 -0.164627,-0.327232 -0.428537,-0.454305 -0.190667,-0.09094 -0.626637,-0.124945 l -0.776179,-0.06055 z"
           style="fill:url(#linearGradient15368);stroke:#00a651;stroke-opacity:0.980392"
           id="path15351" /><path
           d="m 24.842936,41.67205 0.4207,-3.947142 0.51047,-0.136063 2.419859,3.190007 -0.539779,0.143875 -0.70671,-0.973119 -1.497216,0.399075 -0.104181,1.189257 z m 0.641239,-1.74573 1.213893,-0.323557 -0.638007,-0.892025 q -0.291409,-0.40628 -0.451924,-0.674796 0.02341,0.362613 -0.01067,0.735314 z"
           style="fill:url(#linearGradient15370);stroke:#00a651;stroke-opacity:0.980392"
           id="path15353" /><path
           d="m 31.316198,39.33906 -0.856974,-3.875889 0.440656,-0.291403 3.309042,2.254351 -0.465956,0.308134 -0.979593,-0.697709 -1.292449,0.854689 0.279604,1.160607 z m 0.0525,-1.859034 1.047875,-0.692953 -0.88866,-0.642686 q -0.405528,-0.292455 -0.643132,-0.49595 0.137557,0.336324 0.223832,0.7005 z"
           style="fill:url(#linearGradient15372);stroke:#00a651;stroke-opacity:0.980392"
           id="path15355" /><path
           d="m 37.331065,34.187648 -1.225953,-0.980324 -2.560084,-0.218535 0.372555,-0.465901 1.328799,0.127219 q 0.371085,0.03782 0.724805,0.09735 -0.122839,-0.311836 -0.258727,-0.724728 l -0.402534,-1.241046 0.356768,-0.44616 0.744671,2.488817 1.225952,0.980323 z"
           style="fill:url(#linearGradient15374);stroke:#00a651;stroke-opacity:0.980392"
           id="path15357" /><path
           d="m 40.066029,29.932336 -2.991306,-2.609407 0.18147,-0.496146 4.001115,-0.151447 -0.191889,0.524634 -1.202491,0.02042 -0.532255,1.455205 0.914222,0.767715 z m -1.06181,-1.526866 0.431535,-1.179832 -1.096653,0.01069 q -0.499952,0.0055 -0.811968,-0.01707 0.310409,0.188897 0.596099,0.430657 z"
           style="fill:url(#linearGradient15376);stroke:#00a651;stroke-opacity:0.980392"
           id="path15359" /><path
           d="m 41.902169,22.870138 -3.705342,-0.04624 0.0061,-0.490339 1.521566,0.01899 0.02404,-1.925968 -1.521566,-0.01899 0.0061,-0.490338 3.705341,0.04624 -0.0061,0.490339 -1.746515,-0.0218 -0.02404,1.925969 1.746515,0.0218 z"
           style="fill:url(#linearGradient15378);stroke:#00a651;stroke-opacity:0.980392"
           id="path15361" /></g></g></g><metadata
     id="metadata317"><rdf:RDF><cc:Work
         rdf:about=""><dc:title>Al-Hidaayah Logo</dc:title><dc:date>3 July, 2023</dc:date><dc:creator><cc:Agent><dc:title>faoba</dc:title></cc:Agent></dc:creator><dc:subject><rdf:Bag><rdf:li>logo</rdf:li></rdf:Bag></dc:subject><dc:contributor><cc:Agent><dc:title>Abu AbdiLlah Al-Bukhaaree</dc:title></cc:Agent></dc:contributor></cc:Work></rdf:RDF></metadata></svg>
